<?xml version="1.0" encoding="UTF-8"?>
<!DOCTYPE svg PUBLIC "-//W3C//DTD SVG 1.1//EN" "http://www.w3.org/Graphics/SVG/1.1/DTD/svg11.dtd">
<!-- Creator: CorelDRAW 2018 (64-Bit) -->
<svg xmlns="http://www.w3.org/2000/svg" xml:space="preserve" width="67.7334mm" height="67.7334mm" version="1.1" style="shape-rendering:geometricPrecision; text-rendering:geometricPrecision; image-rendering:optimizeQuality; fill-rule:evenodd; clip-rule:evenodd"
viewBox="0 0 5038.32 5038.32"
 xmlns:xlink="http://www.w3.org/1999/xlink">
 <defs>
  <style type="text/css">
   <![CDATA[
    .fil1 {fill:#2B2A29}
    .fil0 {fill:#FFDB00}
   ]]>
  </style>
 </defs>
 <g id="Слой_x0020_1">
  <metadata id="CorelCorpID_0Corel-Layer"/>
  <path class="fil0" d="M1180.86 0l2676.61 0c652.06,0 1180.86,528.8 1180.86,1180.86l0 2676.61c0,652.05 -528.8,1180.85 -1180.86,1180.85l-2676.61 0.01c-652.05,-0.01 -1180.85,-528.81 -1180.85,-1180.86l-0.01 -2676.6c0.01,-652.06 528.81,-1180.86 1180.86,-1180.86z"/>
  <path class="fil1" d="M2000.25 3594.11c0,0 -151.13,91.98 105.19,118.3 309.54,39.44 473.2,32.85 814.93,-32.83 0,0 91.99,59.22 216.88,105.17 -769.03,328.59 -1741.71,-19.72 -1137.01,-190.65zm-98.57 -427.18c0,0 -164.34,124.89 91.98,151.13 335.12,32.85 598.12,39.45 1051.6,-52.49 0,0 59.22,65.76 157.75,98.6 -926.64,276.02 -1965.13,26.23 -1301.34,-197.19l0 -0.06zm1813.98 749.25c0,0 111.71,91.98 -124.89,164.34 -440.38,131.42 -1846.83,170.93 -2241.18,0 -137.95,-59.22 124.9,-144.7 210.3,-157.75 85.46,-19.72 131.42,-19.72 131.42,-19.72 -151.14,-105.17 -1005.58,216.88 -433.78,309.56 1570.79,256.39 2865.61,-111.7 2458.08,-295.76l0.05 -0.67zm-1643.12 -1196.23c0,0 -716.42,170.94 -256.4,230.01 197.18,26.24 584.93,19.72 946.43,-6.59 295.76,-26.26 592.2,-78.86 592.2,-78.86 0,0 -105.19,46.01 -177.47,91.99 -730.14,190.77 -2130.07,105.31 -1729.13,-91.87 341.86,-164.34 624.36,-144.68 624.36,-144.68l0 0zm1281.54 716.41c736.21,-381.21 394.35,-749.25 157.75,-703.22 -59.22,13.13 -85.46,26.26 -85.46,26.26 0,0 19.7,-39.45 65.73,-52.49 466.61,-164.33 834.73,492.93 -151.13,749.25 0,0 6.59,-6.59 13.11,-19.72l0 -0.08zm-1209.27 1038.37c709.83,46.03 1794.27,-26.26 1820.58,-361.52 0,0 -52.49,131.43 -584.92,230.03 -604.63,111.71 -1353.97,98.58 -1794.27,26.24 0,0 91.99,78.86 558.67,105.17l-0.06 0.08z"/>
  <path class="fil1" d="M2906.58 551.07c0,0 407.48,414.06 -387.75,1038.35 -637.54,506.05 -144.68,795.28 0,1123.82 -374.62,-335.13 -644,-630.95 -460.08,-906.99 270.12,-407.26 1012.7,-604.43 847.84,-1255.17zm-210.29 1886.26c190.57,216.88 -52.49,414.06 -52.49,414.06 0,0 486.33,-249.67 262.92,-558.68 -203.78,-295.77 -361.5,-440.37 492.92,-933.37 0,0 -1347.35,335.12 -703.22,1077.85l-0.13 0.14z"/>
 </g>
</svg>
